<?xml version="1.0" standalone="no"?><!DOCTYPE svg PUBLIC "-//W3C//DTD SVG 1.1//EN" "http://www.w3.org/Graphics/SVG/1.1/DTD/svg11.dtd"><svg t="1629036340003" class="icon" viewBox="0 0 1024 1024" version="1.1" xmlns="http://www.w3.org/2000/svg" p-id="17544" data-spm-anchor-id="a313x.7781069.0.i20" width="48" height="48" xmlns:xlink="http://www.w3.org/1999/xlink"><defs><style type="text/css"></style></defs><path d="M880 112H144a32 32 0 0 0-32 32v736a32 32 0 0 0 32 32h736a32 32 0 0 0 32-32V144a32 32 0 0 0-32-32z m-190.016 512h-46.912a32 32 0 0 1-25.856-13.184L512 465.408 406.784 610.816a31.872 31.872 0 0 1-25.856 13.184h-46.912c-6.528 0-10.304-7.424-6.528-12.672l177.984-246.016a7.936 7.936 0 0 1 12.928 0l177.984 246.016a7.936 7.936 0 0 1-6.4 12.672z" p-id="17545" data-spm-anchor-id="a313x.7781069.0.i23" class=""></path></svg>